<svg width="28" height="19" viewBox="0 0 28 19" fill="none" xmlns="http://www.w3.org/2000/svg">
<path d="M17.6063 10.9856L18.4206 13.8L19.7875 14.4949L12.8658 18.4559C12.7262 18.5358 12.5556 18.4892 12.4877 18.4559L7.54362 16.1627C7.42729 15.6901 7.53393 15.4099 7.60179 15.3288L9.434 14.3906C9.52707 13.5012 9.84116 13.2556 9.98658 13.244H11.2081C11.115 9.24134 8.97837 7.22145 7.9217 6.71185L4.48993 5.35677C4.07114 5.1344 4.02461 4.49971 4.05369 4.21016L2.30872 3.55L1.98881 3.75847H1.49441L1 3.0983L1.02908 2.2644L1.37808 1.67373L1.75615 1.5L2.36689 1.67373L2.57047 2.05593L2.62864 2.3339L4.3736 2.99406C4.583 2.52152 5.02312 2.40339 5.217 2.40339L22.783 9.45676C23.2716 9.79032 23.2192 10.6149 23.132 10.9856L25.6622 11.8542L26.0112 11.5762L26.5056 11.8542L27 12.3407V13.0703L26.7383 13.8L26.0112 14.1127L25.4877 13.8L25.1678 13.0703C24.5086 12.6186 23.1087 11.8403 22.783 12.3407C22.4573 12.841 21.9105 12.8503 21.6779 12.7923L17.6063 10.9856ZM17.6063 10.9856C16.1813 10.6303 13.7975 9.68134 13.025 12.3407" stroke="white"/>
</svg>
