<?xml version="1.0" standalone="no"?>
<!DOCTYPE svg PUBLIC "-//W3C//DTD SVG 20010904//EN"
 "http://www.w3.org/TR/2001/REC-SVG-20010904/DTD/svg10.dtd">
<svg version="1.0" xmlns="http://www.w3.org/2000/svg"
 width="159.000000pt" height="33.000000pt" viewBox="0 0 159.000000 33.000000"
 preserveAspectRatio="xMidYMid meet">

<g transform="translate(0.000000,33.000000) scale(0.100000,-0.100000)"
fill="#000000" stroke="none">
<path d="M0 165 l0 -165 795 0 795 0 0 165 0 165 -795 0 -795 0 0 -165z m170
38 c18 -57 26 -59 40 -9 10 37 17 46 35 46 26 0 30 -11 40 -113 7 -64 6 -67
-14 -67 -15 0 -21 6 -22 23 0 12 -4 31 -8 42 -7 17 -10 13 -21 -23 -17 -55
-38 -52 -59 8 l-16 45 -5 -45 c-4 -38 -9 -46 -29 -48 -22 -3 -23 -1 -18 30 3
18 9 59 13 91 6 51 9 57 29 57 18 0 26 -8 35 -37z m581 -23 c3 -30 6 -47 7
-37 1 9 11 26 22 37 18 18 44 20 123 11 4 -1 8 -13 8 -28 1 -18 3 -21 6 -10 2
9 18 24 35 33 25 13 35 13 59 3 38 -15 32 -34 -12 -34 -29 0 -34 -4 -37 -26
-3 -29 22 -47 42 -30 7 6 18 6 26 1 11 -7 11 -11 1 -24 -28 -34 -109 -9 -112
33 -1 9 -4 3 -8 -14 -6 -29 -9 -30 -63 -33 -56 -3 -58 -2 -78 30 l-20 33 0
-32 c0 -28 -3 -33 -25 -33 -22 0 -25 4 -25 38 l-1 37 -13 -31 c-15 -34 -32
-44 -77 -44 -22 0 -29 -5 -29 -20 0 -13 -7 -20 -20 -20 -18 0 -20 7 -20 70 0
54 -3 70 -14 70 -11 0 -16 -14 -18 -47 -3 -41 -6 -48 -25 -51 -22 -3 -23 0
-23 65 l0 69 96 -1 c92 0 97 -1 120 -28 l24 -28 0 51 c0 48 2 51 23 48 19 -3
23 -11 28 -58z m599 5 c4 -37 7 -44 12 -28 14 49 103 49 129 1 18 -33 4 -48
-46 -48 -28 0 -44 -4 -40 -10 4 -6 24 -7 48 -4 l42 7 -19 -22 c-27 -30 -79
-28 -105 4 l-20 26 -3 -23 c-3 -20 -9 -23 -60 -26 -52 -3 -58 -1 -74 23 l-17
26 -24 -25 c-30 -33 -75 -34 -103 -4 -29 31 -26 72 7 98 33 26 69 20 99 -17
22 -25 22 -25 29 -4 8 28 41 44 71 37 19 -5 24 -2 24 12 0 24 10 33 30 30 10
-2 17 -19 20 -53z m-902 -58 l3 -67 -54 0 c-63 0 -97 24 -97 70 0 42 38 68 97
66 l48 -1 3 -68z"/>
<path d="M597 153 c-12 -11 -8 -51 6 -56 19 -7 47 12 47 32 0 24 -37 41 -53
24z"/>
<path d="M804 146 c-10 -26 4 -46 31 -46 23 0 26 4 23 28 -3 31 -44 45 -54 18z"/>
<path d="M1097 153 c-4 -3 -7 -17 -7 -30 0 -21 4 -24 27 -21 18 2 29 10 31 22
5 26 -33 48 -51 29z"/>
<path d="M1244 146 c-10 -26 4 -46 31 -46 23 0 26 4 23 28 -3 31 -44 45 -54
18z"/>
<path d="M1405 150 c-4 -6 5 -10 20 -10 15 0 24 4 20 10 -3 6 -12 10 -20 10
-8 0 -17 -4 -20 -10z"/>
<path d="M352 148 c-16 -16 -15 -23 4 -42 20 -21 31 -20 44 3 20 39 -18 69
-48 39z"/>
</g>
</svg>
